<?xml version="1.0" standalone="no"?>
<!DOCTYPE svg PUBLIC "-//W3C//DTD SVG 20010904//EN"
 "http://www.w3.org/TR/2001/REC-SVG-20010904/DTD/svg10.dtd">
<svg version="1.0" xmlns="http://www.w3.org/2000/svg"
 width="1980.000000pt" height="1980.000000pt" viewBox="0 0 1980.000000 1980.000000"
 preserveAspectRatio="xMidYMid meet">
<metadata>
Created by potrace 1.14, written by Peter Selinger 2001-2017
</metadata>
<g transform="translate(0.000000,1980.000000) scale(0.100000,-0.100000)"
fill="#000000" stroke="none">
<path d="M10580 19620 c-19 -5 -38 -6 -42 -4 -5 3 -8 0 -8 -6 0 -7 -6 -10 -12
-7 -7 2 -25 -2 -39 -9 -15 -7 -29 -11 -31 -9 -3 3 -34 -4 -69 -15 -35 -11 -89
-28 -119 -38 -30 -9 -57 -19 -60 -22 -3 -3 -13 -6 -23 -8 -10 -2 -39 -13 -65
-24 -26 -12 -51 -22 -57 -22 -5 -1 -12 -4 -15 -7 -3 -3 -52 -29 -110 -58 -131
-65 -230 -125 -345 -211 -133 -100 -157 -120 -297 -258 l-76 -75 -48 22 c-26
13 -55 24 -63 26 -9 2 -36 11 -61 20 -25 9 -52 18 -60 20 -8 2 -49 13 -90 24
-41 11 -95 23 -120 26 -24 4 -48 9 -52 11 -7 5 -23 7 -153 19 -76 8 -322 8
-395 1 -264 -25 -605 -128 -792 -238 -27 -15 -48 -24 -48 -20 0 4 -4 2 -8 -3
-4 -6 -36 -28 -72 -49 -62 -38 -203 -140 -245 -178 -61 -55 -89 -78 -97 -78
-4 0 -8 -4 -8 -9 0 -5 -34 -43 -75 -86 -41 -42 -75 -78 -75 -81 0 -4 -23 -33
-45 -58 -6 -6 -24 -29 -40 -51 -17 -22 -34 -43 -40 -47 -5 -4 -6 -8 -1 -8 5 0
0 -10 -11 -22 -24 -26 -60 -84 -69 -110 -4 -10 -9 -18 -13 -18 -3 0 -15 -20
-26 -45 -11 -25 -23 -45 -27 -45 -5 0 -8 -5 -8 -12 0 -6 -11 -34 -24 -62 -50
-106 -120 -304 -131 -368 -3 -18 -9 -42 -12 -53 -3 -11 -7 -29 -9 -40 -2 -11
-8 -47 -14 -80 -22 -122 -25 -164 -24 -350 0 -170 6 -267 21 -329 2 -12 6 -39
9 -61 2 -22 9 -42 14 -43 6 -2 8 -8 5 -12 -10 -16 38 -182 103 -360 l21 -56
-23 -66 c-13 -36 -27 -83 -31 -105 -5 -21 -9 -40 -10 -43 -1 -3 -5 -25 -9 -50
-11 -68 -14 -85 -16 -85 -1 0 -4 -16 -6 -35 -7 -54 -10 -380 -4 -380 3 0 6
-15 6 -33 3 -52 15 -129 26 -165 5 -18 12 -47 15 -64 8 -50 71 -225 113 -313
69 -143 121 -224 231 -360 62 -77 202 -217 255 -255 153 -109 302 -200 329
-200 8 0 15 -3 15 -8 0 -4 28 -17 63 -30 34 -13 70 -28 81 -33 10 -6 26 -12
35 -15 9 -2 70 -18 136 -34 123 -32 175 -40 258 -43 26 -1 47 -4 47 -7 0 -3
49 -5 110 -5 60 0 110 2 110 5 0 3 17 5 38 6 56 1 187 18 187 24 0 1 14 4 30
6 17 3 60 14 96 25 36 10 69 19 73 19 3 0 6 -921 6 -2046 l0 -2046 -99 -201
c-54 -111 -152 -310 -217 -442 -65 -132 -117 -243 -116 -247 1 -5 -2 -8 -8 -8
-5 0 -10 -5 -10 -10 0 -6 -58 -129 -130 -273 -71 -145 -130 -269 -130 -275 0
-5 -3 -12 -7 -14 -10 -4 -97 -180 -95 -190 1 -5 -3 -8 -9 -8 -6 0 -9 -7 -6
-15 4 -8 2 -17 -4 -21 -6 -3 -22 -31 -36 -62 -14 -32 -31 -60 -37 -64 -6 -4
-8 -8 -4 -8 3 0 -43 -99 -103 -220 -60 -121 -109 -224 -109 -228 0 -5 -6 -14
-12 -20 -7 -7 -13 -16 -13 -20 0 -4 -34 -74 -75 -157 -41 -82 -75 -152 -75
-155 -1 -3 -50 -104 -110 -225 -60 -121 -110 -222 -110 -225 -3 -15 -91 -186
-97 -188 -5 -2 -8 -8 -8 -14 0 -16 -33 -82 -44 -90 -6 -4 -8 -8 -4 -8 3 0 -27
-66 -68 -147 -41 -82 -74 -153 -74 -160 0 -6 -3 -13 -7 -15 -5 -1 -28 -46 -53
-98 -25 -52 -48 -97 -52 -98 -5 -2 -8 -9 -8 -16 0 -6 -49 -110 -109 -231 -177
-359 -240 -489 -239 -499 0 -5 -4 -12 -9 -15 -4 -3 -21 -33 -37 -66 -16 -33
-89 -182 -162 -330 -74 -149 -134 -275 -134 -279 0 -4 -9 -20 -20 -36 -11 -15
-17 -30 -13 -34 3 -3 1 -6 -5 -6 -6 0 -13 -14 -17 -30 -4 -17 -11 -30 -16 -30
-5 0 -9 -5 -9 -11 0 -7 -40 -94 -90 -193 -49 -100 -90 -187 -90 -193 0 -6 -3
-13 -7 -15 -5 -1 -39 -68 -78 -148 -38 -80 -74 -148 -80 -152 -5 -4 -7 -8 -3
-8 3 0 -19 -51 -49 -113 -31 -61 -55 -114 -54 -116 2 -2 -1 -7 -6 -10 -8 -6
-53 -94 -53 -104 0 -3 -13 -28 -28 -54 -16 -26 -29 -51 -30 -56 -1 -4 -37 -81
-82 -171 -44 -90 -80 -169 -80 -174 0 -6 -5 -12 -11 -14 -5 -2 -11 -10 -13
-18 -4 -23 -150 -314 -161 -322 -5 -4 -7 -8 -3 -8 5 0 -7 -30 -26 -67 -35 -72
-50 -109 -62 -158 -4 -16 -8 -34 -10 -40 -11 -39 -30 -154 -28 -168 1 -9 -1
-17 -4 -17 -4 0 -7 -21 -7 -48 1 -26 -2 -59 -6 -74 -4 -15 -4 -30 -1 -32 4 -2
7 -34 7 -70 0 -36 3 -66 6 -66 3 0 6 -21 8 -46 1 -25 6 -55 10 -67 4 -12 6
-28 4 -34 -3 -7 0 -13 7 -13 6 0 9 -3 7 -8 -6 -8 14 -84 33 -127 7 -16 13 -33
12 -37 -3 -12 77 -176 88 -183 6 -3 10 -15 10 -26 0 -10 4 -19 10 -19 5 0 17
-16 26 -35 9 -19 20 -35 25 -35 5 0 9 -6 9 -12 0 -7 13 -28 28 -46 15 -17 41
-49 57 -69 52 -63 236 -243 250 -243 4 0 20 -12 59 -45 7 -5 19 -14 27 -20 9
-5 35 -23 59 -39 38 -25 247 -139 260 -142 3 0 14 -4 25 -9 98 -41 163 -65
176 -65 9 0 19 -3 23 -7 3 -4 12 -8 19 -9 7 -1 35 -8 62 -17 28 -8 52 -15 55
-15 3 0 12 -3 20 -6 25 -8 83 -18 173 -31 23 -4 57 -9 75 -11 18 -3 72 -8 120
-12 118 -10 6613 -8 6682 2 85 11 132 18 165 22 17 2 43 6 58 10 16 3 38 7 50
9 109 17 331 92 477 162 107 51 277 151 308 181 8 7 30 25 50 40 82 60 194
168 257 247 42 53 52 65 73 89 6 8 12 19 12 25 0 5 3 11 8 13 10 4 62 90 105
173 38 75 95 230 103 280 2 17 7 41 11 55 3 14 8 32 10 40 24 95 20 366 -7
486 -7 27 -13 56 -15 64 -12 58 -42 141 -76 210 -21 44 -39 84 -39 89 0 5 -7
14 -15 21 -8 6 -14 15 -13 18 2 7 -62 141 -198 415 -35 70 -60 127 -56 127 4
0 2 4 -4 8 -12 7 -73 131 -73 146 1 5 -3 12 -8 15 -11 8 -63 113 -63 129 0 6
-4 12 -9 12 -5 0 -13 10 -16 23 -4 12 -22 52 -41 89 -19 38 -31 68 -26 68 4 0
-1 5 -10 11 -10 5 -18 16 -18 22 0 7 -22 56 -49 110 -28 53 -47 97 -43 97 4 0
3 4 -3 8 -5 4 -29 45 -51 92 -23 47 -92 186 -153 310 -61 124 -111 231 -111
238 0 6 -4 12 -8 12 -5 0 -15 18 -22 40 -7 22 -17 40 -22 40 -4 0 -8 4 -8 9 0
8 -52 121 -70 151 -5 8 -54 107 -108 220 -55 113 -168 344 -251 513 -83 169
-151 312 -151 317 0 6 -4 10 -10 10 -5 0 -10 5 -10 12 0 16 -112 242 -124 250
-6 4 -8 8 -4 8 4 0 -21 57 -56 128 -36 70 -69 139 -75 155 -6 15 -15 27 -21
27 -6 0 -9 4 -5 9 3 5 -8 32 -25 60 -16 28 -28 51 -25 51 2 0 -48 103 -111
230 -62 126 -114 234 -114 240 0 5 -4 10 -10 10 -5 0 -10 5 -10 11 0 11 -60
135 -251 523 -49 99 -89 183 -89 189 0 5 -9 20 -20 34 -11 14 -17 29 -14 34 3
5 1 9 -3 9 -10 0 -43 69 -43 88 0 7 -4 12 -10 12 -5 0 -10 4 -10 9 0 9 -34 86
-50 111 -5 8 -37 74 -72 145 -34 72 -67 133 -73 137 -5 4 -7 8 -2 8 4 0 -4 21
-18 48 -13 26 -108 218 -211 427 -102 209 -214 436 -247 505 -34 69 -62 127
-62 130 -1 3 -19 39 -40 80 -22 41 -42 80 -44 85 -2 6 -35 73 -74 150 l-69
140 -2 1638 c-1 1630 -1 1638 19 1642 11 2 38 7 60 11 75 14 133 30 182 51 21
9 41 16 46 15 4 -1 7 1 7 5 0 5 20 17 45 28 25 11 45 23 45 27 0 5 5 8 10 8 6
0 16 5 23 10 7 6 39 31 72 58 60 48 96 84 165 169 63 77 175 295 194 378 23
98 37 176 41 218 2 26 7 52 10 57 4 6 1 10 -5 10 -6 0 -8 5 -3 13 4 6 8 208 8
447 l0 435 85 46 c47 25 101 54 120 65 53 29 203 131 228 154 11 11 24 20 27
20 4 0 12 6 19 13 7 6 35 30 62 52 49 40 264 251 264 259 0 2 14 19 31 37 16
18 57 69 89 113 84 115 91 125 89 132 0 4 3 10 8 13 13 9 93 139 93 151 0 5 4
10 10 10 5 0 9 3 8 8 -1 4 22 55 50 114 29 60 52 111 52 115 1 5 9 26 20 48
11 22 19 47 20 56 0 9 3 19 7 23 4 3 8 12 9 19 1 7 9 32 17 57 14 41 33 109
43 152 2 10 6 28 10 41 3 12 7 33 10 47 2 14 7 36 10 50 12 50 14 66 19 115 3
28 8 68 11 90 19 124 6 528 -20 651 -2 12 -7 39 -10 60 -4 22 -18 84 -32 139
-14 55 -27 105 -28 110 -1 6 -4 15 -7 20 -3 6 -14 39 -24 75 -10 36 -25 74
-32 85 -7 11 -13 25 -13 33 0 41 -194 402 -274 508 -17 23 -38 52 -46 64 -8
12 -19 28 -25 34 -5 6 -32 38 -60 71 -69 83 -227 241 -305 306 -36 30 -67 57
-68 62 -2 4 -8 5 -13 1 -5 -3 -9 -1 -9 5 0 5 -55 46 -122 90 -68 45 -129 86
-135 91 -7 6 -13 8 -13 4 0 -3 -6 -2 -12 4 -21 17 -168 93 -168 86 0 -3 -7 2
-16 10 -8 9 -21 16 -28 16 -7 0 -32 9 -56 21 -23 11 -87 36 -142 54 -54 18
-102 35 -105 39 -4 3 -19 6 -34 6 -15 0 -30 4 -33 9 -3 5 -23 11 -43 14 -21 3
-69 12 -108 21 -59 13 -138 16 -505 15 -239 -1 -451 -5 -470 -9z"/>
</g>
</svg>
